<svg width="101" height="98" viewBox="0 0 101 98" fill="none" xmlns="http://www.w3.org/2000/svg">
<path fill-rule="evenodd" clip-rule="evenodd" d="M50.5361 96.9977L50.6213 81.3784C46.2963 81.3293 42.1531 80.562 38.3179 79.1964L33.0002 91.6261L32.0811 91.232L37.3793 78.8479C33.1764 77.2227 29.3661 74.8713 26.1213 71.9578L15.4361 82.1067L14.7481 81.381L25.385 71.2779C22.1409 68.1966 19.5077 64.5351 17.6728 60.4712L6.03109 65.0025L5.66899 64.0704L17.2747 59.5531C15.654 55.6557 14.7591 51.4108 14.7482 46.9686L1.00141 47.0149L0.998047 46.0149L14.7608 45.9685C14.876 41.7819 15.7766 37.7811 17.3278 34.094L5.66899 29.7433L6.018 28.8062L17.73 33.1767C19.5623 29.1632 22.1745 25.5455 25.385 22.4961L14.7481 12.393L15.4361 11.6673L26.1213 21.8162C29.436 18.84 33.3406 16.4504 37.6511 14.8222L32.4937 2.06551L33.4206 1.69005L38.5919 14.4812C42.4616 13.1372 46.6393 12.4006 50.9972 12.3931L51.0647 0L52.0647 0.00546024L51.9971 12.4042C56.492 12.5118 60.7839 13.3951 64.7301 14.9184L70.2289 2.06551L71.148 2.45951L65.6583 15.2911C69.8205 17.0279 73.5742 19.4849 76.7444 22.4961L87.3813 12.393L88.0693 13.1188L77.4603 23.1954C80.3992 26.1483 82.7949 29.5942 84.4954 33.3887L95.9838 28.9171L96.3459 29.8492L84.8908 34.3079C86.3576 37.8635 87.2209 41.7066 87.3611 45.7237L100.997 45.6777L101 46.6777L87.3809 46.7236C87.3812 46.778 87.3813 46.8325 87.3813 46.887C87.3813 50.9227 86.6517 54.7965 85.3108 58.3959L96.816 62.6893L96.467 63.6264L84.9476 59.3277C83.2317 63.5407 80.67 67.3536 77.4603 70.5786L88.0693 80.6552L87.3813 81.381L76.7444 71.2779C73.3158 74.5344 69.2049 77.1428 64.6327 78.8931L69.7721 91.6054L68.8453 91.9808L63.6936 79.2382C59.9249 80.5659 55.8612 81.3165 51.6213 81.377L51.5361 97.0032L50.5361 96.9977Z" fill="#6B75EA"/>
<ellipse cx="51.0647" cy="46.4739" rx="34.2531" ry="32.4285" fill="white"/>
<ellipse cx="51.2711" cy="46.4739" rx="31.158" ry="27.0581" fill="#6B75EA"/>
<path d="M20.1131 46.2673C42.7396 34.5303 56.4329 34.872 82.4291 46.2673" stroke="white" stroke-width="2"/>
</svg>
